{
	"asset":{
		"generator":"Khronos glTF Blender I/O v3.6.27",
		"version":"2.0"
	},
	"extensionsUsed":[
		"KHR_materials_specular",
		"KHR_materials_ior"
	],
	"scene":0,
	"scenes":[
		{
			"name":"Scene",
			"nodes":[
				21
			]
		}
	],
	"nodes":[
		{
			"name":"Bone.001",
			"rotation":[
				-0.08061622083187103,
				6.52107132737001e-08,
				-0.7140870690345764,
				0.6953997015953064
			],
			"scale":[
				0.9999998807907104,
				0.9999999403953552,
				0.9999998807907104
			],
			"translation":[
				-5.820766091346741e-11,
				1,
				0
			]
		},
		{
			"name":"Bone.002",
			"rotation":[
				0.09814680367708206,
				-1.504704627564024e-08,
				0.7427285313606262,
				0.6623606085777283
			],
			"scale":[
				0.9999998807907104,
				0.9999998807907104,
				0.9999999403953552
			],
			"translation":[
				-5.820766091346741e-11,
				1,
				0
			]
		},
		{
			"name":"Bone.012",
			"rotation":[
				0.00438724597916007,
				9.581297888416884e-08,
				0.03331030532717705,
				0.9994354248046875
			],
			"scale":[
				1.0000001192092896,
				1.0000001192092896,
				1
			],
			"translation":[
				1.1496013030409813e-09,
				0.1367114633321762,
				-2.1254891180433333e-09
			]
		},
		{
			"children":[
				2
			],
			"name":"Bone.011",
			"rotation":[
				-0.0005905712023377419,
				6.599247370786543e-09,
				-0.004483956377953291,
				0.9999897480010986
			],
			"scale":[
				1,
				1.0000001192092896,
				1.0000001192092896
			],
			"translation":[
				-1.8746504792943597e-08,
				0.13097073137760162,
				1.6575540939811617e-08
			]
		},
		{
			"children":[
				3
			],
			"name":"Bone.010",
			"rotation":[
				0.010070771910250187,
				-1.777338987096755e-08,
				-0.022749824449419975,
				0.9996904730796814
			],
			"scale":[
				0.9999999403953552,
				0.9999998807907104,
				0.9999999403953552
			],
			"translation":[
				-5.820766091346741e-11,
				1,
				0
			]
		},
		{
			"children":[
				0,
				1,
				4
			],
			"name":"Bone",
			"scale":[
				0.9999999403953552,
				0.9999999403953552,
				0.9999999403953552
			],
			"translation":[
				-5.820766091346741e-11,
				0,
				0
			]
		},
		{
			"name":"Bone.009",
			"rotation":[
				-0.25827914476394653,
				0.08485497534275055,
				0.5841571092605591,
				0.7647561430931091
			],
			"scale":[
				1,
				0.9999998807907104,
				0.9999999403953552
			],
			"translation":[
				4.656612873077393e-10,
				0.13489969074726105,
				-4.6566128730773926e-09
			]
		},
		{
			"children":[
				6
			],
			"name":"Bone.008",
			"rotation":[
				-0.06334929913282394,
				0.0007819284801371396,
				0.022694051265716553,
				0.9977330565452576
			],
			"scale":[
				1,
				1.0000001192092896,
				0.9999999403953552
			],
			"translation":[
				-1.4406396076083183e-08,
				0.7743759751319885,
				-2.5858753360807896e-08
			]
		},
		{
			"children":[
				7
			],
			"name":"Bone.007",
			"rotation":[
				0.08290643990039825,
				-0.0037894800771027803,
				0.05179031565785408,
				0.9952034950256348
			],
			"scale":[
				1,
				1,
				0.9999999403953552
			],
			"translation":[
				-6.693881005048752e-09,
				0.09064612537622452,
				9.89530235528946e-10
			]
		},
		{
			"children":[
				8
			],
			"name":"Bone.006",
			"rotation":[
				-0.07850430905818939,
				-0.0019136411137878895,
				0.02690686099231243,
				0.9965487718582153
			],
			"scale":[
				0.9999999403953552,
				0.9999999403953552,
				0.9999998211860657
			],
			"translation":[
				-4.0745362639427185e-10,
				0.10211221873760223,
				1.0099029168486595e-08
			]
		},
		{
			"children":[
				9
			],
			"name":"Bone.005",
			"rotation":[
				-0.003959850873798132,
				-0.0002990288194268942,
				-0.04918023198843002,
				0.9987820386886597
			],
			"scale":[
				1,
				1,
				1.0000001192092896
			],
			"translation":[
				-1.635544322198257e-08,
				0.6746843457221985,
				-4.656612873077393e-10
			]
		},
		{
			"children":[
				10
			],
			"name":"Bone.004",
			"rotation":[
				-0.34680452942848206,
				0.036598995327949524,
				-0.15789557993412018,
				0.9238268733024597
			],
			"scale":[
				0.9999999403953552,
				1,
				1
			],
			"translation":[
				-5.960464477539063e-08,
				0.24512024223804474,
				9.12696123123169e-08
			]
		},
		{
			"children":[
				11
			],
			"name":"Bone.003",
			"rotation":[
				-0.7672701478004456,
				0.327801376581192,
				0.48462578654289246,
				0.26264169812202454
			],
			"scale":[
				0.9999998807907104,
				0.9999998807907104,
				0.9999998211860657
			],
			"translation":[
				-5.820766091346741e-11,
				0,
				0
			]
		},
		{
			"name":"Bone.019",
			"rotation":[
				-0.08979639410972595,
				-2.3279756788952e-08,
				-0.688032865524292,
				0.7201023101806641
			],
			"scale":[
				0.9999998807907104,
				0.9999998211860657,
				1
			],
			"translation":[
				2.1827872842550278e-10,
				0.13627637922763824,
				-2.444721758365631e-08
			]
		},
		{
			"children":[
				13
			],
			"name":"Bone.018",
			"rotation":[
				-0.1074579507112503,
				4.168941103444013e-08,
				-0.014086258597671986,
				0.9941098690032959
			],
			"scale":[
				0.9999999403953552,
				1,
				0.9999999403953552
			],
			"translation":[
				4.6566128730773926e-09,
				0.7711417078971863,
				-1.1641532182693481e-08
			]
		},
		{
			"children":[
				14
			],
			"name":"Bone.017",
			"rotation":[
				0.011351507157087326,
				1.237284408261985e-07,
				-0.0010954230092465878,
				0.99993497133255
			],
			"translation":[
				-5.587935447692871e-09,
				0.0949622392654419,
				-3.434251993894577e-08
			]
		},
		{
			"children":[
				15
			],
			"name":"Bone.016",
			"rotation":[
				0.0022037795279175043,
				5.151419291138382e-09,
				-0.00021263735834509134,
				0.9999975562095642
			],
			"scale":[
				0.9999998211860657,
				0.9999997615814209,
				0.9999999403953552
			],
			"translation":[
				1.862645149230957e-09,
				0.08076266944408417,
				-2.8870999813079834e-08
			]
		},
		{
			"children":[
				16
			],
			"name":"Bone.015",
			"rotation":[
				-0.054521817713975906,
				-1.362649726388554e-07,
				0.005261185113340616,
				0.9984987378120422
			],
			"translation":[
				-9.313225746154785e-10,
				0.6723008155822754,
				1.83936208486557e-08
			]
		},
		{
			"children":[
				17
			],
			"name":"Bone.014",
			"rotation":[
				-0.2562732696533203,
				9.647462206885393e-08,
				0.009086625650525093,
				0.9665616750717163
			],
			"scale":[
				1,
				0.9999998807907104,
				1
			],
			"translation":[
				-1.0410744266664551e-08,
				0.24511854350566864,
				-8.89413058757782e-08
			]
		},
		{
			"children":[
				18
			],
			"name":"Bone.013",
			"rotation":[
				-0.7169816493988037,
				-0.21915872395038605,
				-0.6094525456428528,
				0.25782617926597595
			],
			"scale":[
				0.9999997615814209,
				0.9999998211860657,
				0.9999998807907104
			],
			"translation":[
				-5.820766091346741e-11,
				0,
				0
			]
		},
		{
			"mesh":0,
			"name":"HumanoidBase_NotOverlapping",
			"skin":0
		},
		{
			"children":[
				20,
				5,
				12,
				19
			],
			"name":"Armature",
			"scale":[
				0.48406702280044556,
				0.48406702280044556,
				0.48406702280044556
			],
			"translation":[
				0.0002700015902519226,
				0.960209310054779,
				0.03189955651760101
			]
		}
	],
	"materials":[
		{
			"doubleSided":true,
			"extensions":{
				"KHR_materials_specular":{
					"specularColorFactor":[
						0,
						0,
						0
					]
				},
				"KHR_materials_ior":{
					"ior":1.4500000476837158
				}
			},
			"name":"Humanoid_NotOverlapping",
			"pbrMetallicRoughness":{
				"metallicFactor":0
			}
		}
	],
	"meshes":[
		{
			"name":"HumanoidBase_NotOverlapping",
			"primitives":[
				{
					"attributes":{
						"POSITION":0,
						"NORMAL":1,
						"TEXCOORD_0":2,
						"TANGENT":3,
						"JOINTS_0":4,
						"JOINTS_1":5,
						"WEIGHTS_0":6,
						"WEIGHTS_1":7
					},
					"indices":8,
					"material":0
				}
			]
		}
	],
	"skins":[
		{
			"inverseBindMatrices":9,
			"joints":[
				5,
				0,
				1,
				4,
				3,
				2,
				12,
				11,
				10,
				9,
				8,
				7,
				6,
				19,
				18,
				17,
				16,
				15,
				14,
				13
			],
			"name":"Armature"
		}
	],
	"accessors":[
		{
			"bufferView":0,
			"componentType":5126,
			"count":630,
			"max":[
				0.23384223878383636,
				2.14082407951355,
				0.18058434128761292
			],
			"min":[
				-0.2619941830635071,
				-0.00011111851927125826,
				-0.1056094765663147
			],
			"type":"VEC3"
		},
		{
			"bufferView":1,
			"componentType":5126,
			"count":630,
			"type":"VEC3"
		},
		{
			"bufferView":2,
			"componentType":5126,
			"count":630,
			"type":"VEC2"
		},
		{
			"bufferView":3,
			"componentType":5126,
			"count":630,
			"type":"VEC4"
		},
		{
			"bufferView":4,
			"componentType":5121,
			"count":630,
			"type":"VEC4"
		},
		{
			"bufferView":5,
			"componentType":5121,
			"count":630,
			"type":"VEC4"
		},
		{
			"bufferView":6,
			"componentType":5126,
			"count":630,
			"type":"VEC4"
		},
		{
			"bufferView":7,
			"componentType":5126,
			"count":630,
			"type":"VEC4"
		},
		{
			"bufferView":8,
			"componentType":5123,
			"count":870,
			"type":"SCALAR"
		},
		{
			"bufferView":9,
			"componentType":5126,
			"count":20,
			"type":"MAT4"
		}
	],
	"bufferViews":[
		{
			"buffer":0,
			"byteLength":7560,
			"byteOffset":0,
			"target":34962
		},
		{
			"buffer":0,
			"byteLength":7560,
			"byteOffset":7560,
			"target":34962
		},
		{
			"buffer":0,
			"byteLength":5040,
			"byteOffset":15120,
			"target":34962
		},
		{
			"buffer":0,
			"byteLength":10080,
			"byteOffset":20160,
			"target":34962
		},
		{
			"buffer":0,
			"byteLength":2520,
			"byteOffset":30240,
			"target":34962
		},
		{
			"buffer":0,
			"byteLength":2520,
			"byteOffset":32760,
			"target":34962
		},
		{
			"buffer":0,
			"byteLength":10080,
			"byteOffset":35280,
			"target":34962
		},
		{
			"buffer":0,
			"byteLength":10080,
			"byteOffset":45360,
			"target":34962
		},
		{
			"buffer":0,
			"byteLength":1740,
			"byteOffset":55440,
			"target":34963
		},
		{
			"buffer":0,
			"byteLength":1280,
			"byteOffset":57180
		}
	],
	"buffers":[
		{
			"byteLength":58460,
			"uri":"enemy-88834fa92df4ff744b98423d77058713.bin"
		}
	]
}
