{
	"asset":{
		"generator":"Khronos glTF Blender I/O v3.6.27",
		"version":"2.0"
	},
	"extensionsUsed":[
		"KHR_materials_specular",
		"KHR_materials_ior"
	],
	"scene":0,
	"scenes":[
		{
			"name":"Scene",
			"nodes":[
				0,
				1
			]
		}
	],
	"nodes":[
		{
			"mesh":0,
			"name":"Cylinder",
			"rotation":[
				0,
				0,
				-0.7071068286895752,
				0.7071068286895752
			],
			"scale":[
				0.5975003242492676,
				0.07481211423873901,
				1.0712521076202393
			]
		},
		{
			"mesh":1,
			"name":"Cylinder.001",
			"rotation":[
				0,
				0,
				-0.7071068286895752,
				0.7071068286895752
			],
			"scale":[
				0.5975003242492676,
				0.07481211423873901,
				1.0712521076202393
			],
			"translation":[
				-0.07805860042572021,
				0,
				0
			]
		}
	],
	"materials":[
		{
			"doubleSided":true,
			"name":"EyeStone",
			"pbrMetallicRoughness":{
				"baseColorTexture":{
					"index":0
				},
				"metallicFactor":0,
				"roughnessFactor":0.5
			}
		},
		{
			"doubleSided":true,
			"extensions":{
				"KHR_materials_specular":{
					"specularColorFactor":[
						0,
						0,
						0
					]
				},
				"KHR_materials_ior":{
					"ior":1.4500000476837158
				}
			},
			"name":"EyeVideoMat",
			"pbrMetallicRoughness":{
				"baseColorFactor":[
					0,
					0,
					0,
					1
				],
				"metallicFactor":0
			}
		},
		{
			"doubleSided":true,
			"extensions":{
				"KHR_materials_specular":{
					"specularColorFactor":[
						0,
						0,
						0
					]
				},
				"KHR_materials_ior":{
					"ior":1.4500000476837158
				}
			},
			"name":"EyeClosed",
			"pbrMetallicRoughness":{
				"baseColorTexture":{
					"index":1
				},
				"metallicFactor":0
			}
		}
	],
	"meshes":[
		{
			"name":"Cylinder",
			"primitives":[
				{
					"attributes":{
						"POSITION":0,
						"NORMAL":1,
						"TEXCOORD_0":2,
						"TANGENT":3
					},
					"indices":4,
					"material":0
				},
				{
					"attributes":{
						"POSITION":5,
						"NORMAL":6,
						"TEXCOORD_0":7,
						"TANGENT":8
					},
					"indices":9,
					"material":1
				}
			]
		},
		{
			"name":"Cylinder.001",
			"primitives":[
				{
					"attributes":{
						"POSITION":10,
						"NORMAL":11,
						"TEXCOORD_0":12,
						"TANGENT":13
					},
					"indices":14,
					"material":2
				}
			]
		}
	],
	"textures":[
		{
			"sampler":0,
			"source":0
		},
		{
			"sampler":0,
			"source":1
		}
	],
	"images":[
		{
			"mimeType":"image/png",
			"name":"Stone_18-128x128.png",
			"uri":"../../textures/Stone_18-128x128.png"
		},
		{
			"mimeType":"image/png",
			"name":"Dirt_03-128x128.png",
			"uri":"../../textures/Dirt_03-128x128.png"
		}
	],
	"accessors":[
		{
			"bufferView":0,
			"componentType":5126,
			"count":28,
			"max":[
				1,
				1,
				1
			],
			"min":[
				-1,
				-1,
				-1
			],
			"type":"VEC3"
		},
		{
			"bufferView":1,
			"componentType":5126,
			"count":28,
			"type":"VEC3"
		},
		{
			"bufferView":2,
			"componentType":5126,
			"count":28,
			"type":"VEC2"
		},
		{
			"bufferView":3,
			"componentType":5126,
			"count":28,
			"type":"VEC4"
		},
		{
			"bufferView":4,
			"componentType":5123,
			"count":54,
			"type":"SCALAR"
		},
		{
			"bufferView":5,
			"componentType":5126,
			"count":20,
			"max":[
				0.6987899541854858,
				0.3884422779083252,
				0.6987900137901306
			],
			"min":[
				-0.6987899541854858,
				-1,
				-0.6987900137901306
			],
			"type":"VEC3"
		},
		{
			"bufferView":6,
			"componentType":5126,
			"count":20,
			"type":"VEC3"
		},
		{
			"bufferView":7,
			"componentType":5126,
			"count":20,
			"type":"VEC2"
		},
		{
			"bufferView":8,
			"componentType":5126,
			"count":20,
			"type":"VEC4"
		},
		{
			"bufferView":9,
			"componentType":5123,
			"count":30,
			"type":"SCALAR"
		},
		{
			"bufferView":10,
			"componentType":5126,
			"count":4,
			"max":[
				0.6987899541854858,
				0.3884422779083252,
				0.6987900137901306
			],
			"min":[
				-0.6987899541854858,
				0.3884422779083252,
				-0.6987900137901306
			],
			"type":"VEC3"
		},
		{
			"bufferView":11,
			"componentType":5126,
			"count":4,
			"type":"VEC3"
		},
		{
			"bufferView":12,
			"componentType":5126,
			"count":4,
			"type":"VEC2"
		},
		{
			"bufferView":13,
			"componentType":5126,
			"count":4,
			"type":"VEC4"
		},
		{
			"bufferView":14,
			"componentType":5123,
			"count":6,
			"type":"SCALAR"
		}
	],
	"bufferViews":[
		{
			"buffer":0,
			"byteLength":336,
			"byteOffset":0,
			"target":34962
		},
		{
			"buffer":0,
			"byteLength":336,
			"byteOffset":336,
			"target":34962
		},
		{
			"buffer":0,
			"byteLength":224,
			"byteOffset":672,
			"target":34962
		},
		{
			"buffer":0,
			"byteLength":448,
			"byteOffset":896,
			"target":34962
		},
		{
			"buffer":0,
			"byteLength":108,
			"byteOffset":1344,
			"target":34963
		},
		{
			"buffer":0,
			"byteLength":240,
			"byteOffset":1452,
			"target":34962
		},
		{
			"buffer":0,
			"byteLength":240,
			"byteOffset":1692,
			"target":34962
		},
		{
			"buffer":0,
			"byteLength":160,
			"byteOffset":1932,
			"target":34962
		},
		{
			"buffer":0,
			"byteLength":320,
			"byteOffset":2092,
			"target":34962
		},
		{
			"buffer":0,
			"byteLength":60,
			"byteOffset":2412,
			"target":34963
		},
		{
			"buffer":0,
			"byteLength":48,
			"byteOffset":2472,
			"target":34962
		},
		{
			"buffer":0,
			"byteLength":48,
			"byteOffset":2520,
			"target":34962
		},
		{
			"buffer":0,
			"byteLength":32,
			"byteOffset":2568,
			"target":34962
		},
		{
			"buffer":0,
			"byteLength":64,
			"byteOffset":2600,
			"target":34962
		},
		{
			"buffer":0,
			"byteLength":12,
			"byteOffset":2664,
			"target":34963
		}
	],
	"samplers":[
		{
			"magFilter":9729,
			"minFilter":9987
		}
	],
	"buffers":[
		{
			"byteLength":2676,
			"uri":"eye_switch-a3fa76fad927e896c1e3f0cf9cfff2af.bin"
		}
	]
}
