{
	"asset":{
		"generator":"Khronos glTF Blender I/O v3.6.27",
		"version":"2.0"
	},
	"extensionsUsed":[
		"KHR_materials_specular",
		"KHR_materials_ior"
	],
	"scene":0,
	"scenes":[
		{
			"name":"Scene",
			"nodes":[
				18
			]
		}
	],
	"nodes":[
		{
			"name":"Bone.004",
			"rotation":[
				-0.02552763931453228,
				0.0014561825664713979,
				-0.061813149601221085,
				0.9977601766586304
			],
			"scale":[
				1,
				0.9999998807907104,
				1
			],
			"translation":[
				4.109460860490799e-08,
				0.23130911588668823,
				-9.313225746154785e-09
			]
		},
		{
			"children":[
				0
			],
			"name":"Bone.003",
			"rotation":[
				0.05562867969274521,
				0.001561278011649847,
				-0.04899349436163902,
				0.9972475171089172
			],
			"scale":[
				0.9999999403953552,
				0.9999998807907104,
				1
			],
			"translation":[
				-1.41095370054245e-07,
				0.25685444474220276,
				0
			]
		},
		{
			"children":[
				1
			],
			"name":"Bone.002",
			"rotation":[
				0.019931288436055183,
				-0.011635271832346916,
				0.05378979444503784,
				0.9982855319976807
			],
			"scale":[
				0.9999999403953552,
				1,
				0.9999999403953552
			],
			"translation":[
				-5.98374754190445e-08,
				0.2444300502538681,
				-1.30385160446167e-08
			]
		},
		{
			"children":[
				2
			],
			"name":"Bone.001",
			"rotation":[
				0.07329715043306351,
				0.0964689701795578,
				-0.871766984462738,
				0.47470369935035706
			],
			"scale":[
				0.9999997615814209,
				0.9999999403953552,
				0.9999999403953552
			],
			"translation":[
				0,
				0.30471527576446533,
				0
			]
		},
		{
			"name":"Bone.008",
			"rotation":[
				0.0031746348831802607,
				0.002745221136137843,
				0.028893480077385902,
				0.9995737075805664
			],
			"scale":[
				1,
				0.9999999403953552,
				0.9999999403953552
			],
			"translation":[
				1.3853423297405243e-07,
				0.24803850054740906,
				-7.450580596923828e-09
			]
		},
		{
			"children":[
				4
			],
			"name":"Bone.007",
			"rotation":[
				-0.019473986700177193,
				0.003692477475851774,
				-0.014287075027823448,
				0.9997014999389648
			],
			"scale":[
				1,
				0.9999999403953552,
				1
			],
			"translation":[
				-1.6461126506328583e-07,
				0.25521034002304077,
				-1.862645149230957e-09
			]
		},
		{
			"children":[
				5
			],
			"name":"Bone.006",
			"rotation":[
				0.08746498823165894,
				-0.003448800416663289,
				0.02213631384074688,
				0.9959156513214111
			],
			"scale":[
				0.9999998807907104,
				1,
				1
			],
			"translation":[
				-1.6205012798309326e-07,
				0.22673940658569336,
				3.725290298461914e-08
			]
		},
		{
			"children":[
				6
			],
			"name":"Bone.005",
			"rotation":[
				0.002047604415565729,
				-0.08757715672254562,
				0.8594720363616943,
				0.5036206841468811
			],
			"scale":[
				0.9999998211860657,
				1,
				1
			],
			"translation":[
				0,
				0.30471527576446533,
				0
			]
		},
		{
			"name":"Bone.015",
			"rotation":[
				0.010474679060280323,
				-0.00039132387610152364,
				-0.0073885186575353146,
				0.99991774559021
			],
			"scale":[
				1,
				0.9999999403953552,
				1
			],
			"translation":[
				0,
				0.30471527576446533,
				0
			]
		},
		{
			"children":[
				3,
				7,
				8
			],
			"name":"Bone.016",
			"translation":[
				0,
				0.3047153949737549,
				0
			]
		},
		{
			"children":[
				9
			],
			"name":"Bone",
			"translation":[
				-2.5394060611724854,
				-1.554260492324829,
				0.3239913582801819
			]
		},
		{
			"name":"Bone.014",
			"rotation":[
				-0.0001526496052974835,
				0.0012899307766929269,
				-0.013074406422674656,
				0.9999136924743652
			],
			"scale":[
				0.9999998807907104,
				0.9999998807907104,
				1
			],
			"translation":[
				-9.313225746154785e-10,
				0.33699342608451843,
				-1.9208528101444244e-08
			]
		},
		{
			"children":[
				11
			],
			"name":"Bone.011",
			"rotation":[
				-0.5701009035110474,
				-0.04607511684298515,
				0.022248536348342896,
				0.8199799656867981
			],
			"scale":[
				1,
				1,
				0.9999999403953552
			],
			"translation":[
				4.796376629201404e-10,
				0.11627449095249176,
				1.2325472198426723e-08
			]
		},
		{
			"children":[
				12
			],
			"name":"Bone.009",
			"rotation":[
				-0.5613789558410645,
				0.42738547921180725,
				0.5702319741249084,
				0.42075029015541077
			],
			"scale":[
				0.9999999403953552,
				1,
				1
			],
			"translation":[
				-2.5394060611724854,
				-1.554260492324829,
				0.3239913582801819
			]
		},
		{
			"name":"Bone.013",
			"rotation":[
				0.0074668508023023605,
				-0.0007852191338315606,
				-0.012401724234223366,
				0.999894917011261
			],
			"scale":[
				0.9999999403953552,
				1,
				0.9999998807907104
			],
			"translation":[
				1.3969838619232178e-09,
				0.3275764584541321,
				-3.0384398996829987e-08
			]
		},
		{
			"children":[
				14
			],
			"name":"Bone.012",
			"rotation":[
				-0.5416655540466309,
				0.05343041568994522,
				-0.0023345104418694973,
				0.8388910889625549
			],
			"scale":[
				1,
				0.9999999403953552,
				1
			],
			"translation":[
				9.313225746154785e-10,
				0.121952585875988,
				-1.9208528101444244e-09
			]
		},
		{
			"children":[
				15
			],
			"name":"Bone.010",
			"rotation":[
				-0.5611270666122437,
				-0.4095540940761566,
				-0.6144083738327026,
				0.3740376830101013
			],
			"translation":[
				-2.5394060611724854,
				-1.554260492324829,
				0.3239913582801819
			]
		},
		{
			"mesh":0,
			"name":"HumanoidBase_NotOverlapping",
			"skin":0
		},
		{
			"children":[
				17,
				10,
				13,
				16
			],
			"name":"Armature",
			"translation":[
				2.5422208309173584,
				2.4757914543151855,
				-0.3109300434589386
			]
		}
	],
	"materials":[
		{
			"doubleSided":true,
			"extensions":{
				"KHR_materials_specular":{
					"specularColorFactor":[
						0,
						0,
						0
					]
				},
				"KHR_materials_ior":{
					"ior":1.4500000476837158
				}
			},
			"name":"Humanoid_NotOverlapping",
			"pbrMetallicRoughness":{
				"metallicFactor":0
			}
		},
		{
			"doubleSided":true,
			"name":"Eyes",
			"pbrMetallicRoughness":{
				"baseColorFactor":[
					0.8000000715255737,
					0,
					0.027967611327767372,
					1
				],
				"metallicFactor":0,
				"roughnessFactor":0.5
			}
		}
	],
	"meshes":[
		{
			"name":"HumanoidBase_NotOverlapping",
			"primitives":[
				{
					"attributes":{
						"POSITION":0,
						"NORMAL":1,
						"TEXCOORD_0":2,
						"TANGENT":3,
						"JOINTS_0":4,
						"WEIGHTS_0":5
					},
					"indices":6,
					"material":0
				},
				{
					"attributes":{
						"POSITION":7,
						"NORMAL":8,
						"TEXCOORD_0":9,
						"TANGENT":10,
						"JOINTS_0":11,
						"WEIGHTS_0":12
					},
					"indices":13,
					"material":1
				}
			]
		}
	],
	"skins":[
		{
			"inverseBindMatrices":14,
			"joints":[
				10,
				9,
				3,
				2,
				1,
				0,
				7,
				6,
				5,
				4,
				8,
				13,
				12,
				11,
				16,
				15,
				14
			],
			"name":"Armature"
		}
	],
	"accessors":[
		{
			"bufferView":0,
			"componentType":5126,
			"count":658,
			"max":[
				0.23384225368499756,
				2.0361618995666504,
				0.1805843561887741
			],
			"min":[
				-0.26199421286582947,
				-0.00011111852654721588,
				-0.1056094840168953
			],
			"type":"VEC3"
		},
		{
			"bufferView":1,
			"componentType":5126,
			"count":658,
			"type":"VEC3"
		},
		{
			"bufferView":2,
			"componentType":5126,
			"count":658,
			"type":"VEC2"
		},
		{
			"bufferView":3,
			"componentType":5126,
			"count":658,
			"type":"VEC4"
		},
		{
			"bufferView":4,
			"componentType":5121,
			"count":658,
			"type":"VEC4"
		},
		{
			"bufferView":5,
			"componentType":5126,
			"count":658,
			"type":"VEC4"
		},
		{
			"bufferView":6,
			"componentType":5123,
			"count":918,
			"type":"SCALAR"
		},
		{
			"bufferView":7,
			"componentType":5126,
			"count":8,
			"max":[
				0.032310303300619125,
				1.7119476795196533,
				0.12413541227579117
			],
			"min":[
				-0.027701910585165024,
				1.666387677192688,
				0.11431073397397995
			],
			"type":"VEC3"
		},
		{
			"bufferView":8,
			"componentType":5126,
			"count":8,
			"type":"VEC3"
		},
		{
			"bufferView":9,
			"componentType":5126,
			"count":8,
			"type":"VEC2"
		},
		{
			"bufferView":10,
			"componentType":5126,
			"count":8,
			"type":"VEC4"
		},
		{
			"bufferView":11,
			"componentType":5121,
			"count":8,
			"type":"VEC4"
		},
		{
			"bufferView":12,
			"componentType":5126,
			"count":8,
			"type":"VEC4"
		},
		{
			"bufferView":13,
			"componentType":5123,
			"count":12,
			"type":"SCALAR"
		},
		{
			"bufferView":14,
			"componentType":5126,
			"count":17,
			"type":"MAT4"
		}
	],
	"bufferViews":[
		{
			"buffer":0,
			"byteLength":7896,
			"byteOffset":0,
			"target":34962
		},
		{
			"buffer":0,
			"byteLength":7896,
			"byteOffset":7896,
			"target":34962
		},
		{
			"buffer":0,
			"byteLength":5264,
			"byteOffset":15792,
			"target":34962
		},
		{
			"buffer":0,
			"byteLength":10528,
			"byteOffset":21056,
			"target":34962
		},
		{
			"buffer":0,
			"byteLength":2632,
			"byteOffset":31584,
			"target":34962
		},
		{
			"buffer":0,
			"byteLength":10528,
			"byteOffset":34216,
			"target":34962
		},
		{
			"buffer":0,
			"byteLength":1836,
			"byteOffset":44744,
			"target":34963
		},
		{
			"buffer":0,
			"byteLength":96,
			"byteOffset":46580,
			"target":34962
		},
		{
			"buffer":0,
			"byteLength":96,
			"byteOffset":46676,
			"target":34962
		},
		{
			"buffer":0,
			"byteLength":64,
			"byteOffset":46772,
			"target":34962
		},
		{
			"buffer":0,
			"byteLength":128,
			"byteOffset":46836,
			"target":34962
		},
		{
			"buffer":0,
			"byteLength":32,
			"byteOffset":46964,
			"target":34962
		},
		{
			"buffer":0,
			"byteLength":128,
			"byteOffset":46996,
			"target":34962
		},
		{
			"buffer":0,
			"byteLength":24,
			"byteOffset":47124,
			"target":34963
		},
		{
			"buffer":0,
			"byteLength":1088,
			"byteOffset":47148
		}
	],
	"buffers":[
		{
			"byteLength":48236,
			"uri":"sepsis-00888d06c55d311942e3254a987c79e7.bin"
		}
	]
}
